<svg width="80" height="61" viewBox="0 0 80 61" fill="none" xmlns="http://www.w3.org/2000/svg">
<path d="M37.8556 26.928C46.8033 21.6993 55.5478 17.9214 62.7321 15.9213C63.0862 15.5614 63.4287 15.2043 63.7594 14.8503C65.2965 13.2049 66.7449 11.3671 67.3021 10.4815C67.3919 10.3387 67.4934 10.1819 67.6028 10.0129C68.3189 8.90617 69.3719 7.27873 69.7035 5.66102C69.878 4.80927 69.9715 4.08433 70.0155 3.48141C70.1246 1.98625 69.2281 0.66337 67.7831 0.324857C60.7436 -1.32431 45.543 3.38531 29.7057 12.64C13.8684 21.8948 2.2383 32.864 0.129488 39.8591C-0.303373 41.295 0.380237 42.7423 1.71405 43.3942C2.25191 43.6571 2.91893 43.9377 3.73498 44.2106C5.28486 44.7288 7.2036 44.6195 8.50856 44.5452C8.70794 44.5338 8.89298 44.5233 9.0602 44.5159C10.0965 44.4703 12.3931 44.1196 14.5696 43.595C15.0378 43.4822 15.5146 43.3605 15.9996 43.2301C21.3031 37.9327 28.9079 32.1567 37.8556 26.928Z" fill="#FFB3AB"/>
<path d="M51.8717 47.2951C51.2809 47.6524 50.6837 48.0074 50.0804 48.36C41.27 53.5085 32.6566 57.2503 25.5357 59.2733C16.8085 61.7526 10.3231 61.6502 8.46414 58.3911L0.975742 45.2628C0.975742 45.2628 1.80079 45.8738 4.00342 46.4211C7.12724 47.1021 11.7968 46.5731 17.3858 44.9854C24.5067 42.9624 33.1201 39.2205 41.9305 34.072C42.5174 33.7291 43.0985 33.3838 43.6735 33.0364C42.4911 35.9429 42.5562 39.3185 44.2303 42.2533C45.8867 45.1574 48.7819 46.9718 51.8717 47.2951Z" fill="white"/>
<path fill-rule="evenodd" clip-rule="evenodd" d="M57.0553 43.9986C53.2776 46.5257 48.256 45.1615 46.0055 41.216C43.7549 37.2705 45.1277 32.2378 48.9054 29.7107L48.9616 29.673C54.747 25.7984 59.7214 21.7894 63.5408 18.0141C67.6939 13.909 70.4813 10.0803 71.4606 7.00166C72.0937 4.79727 71.9834 3.76858 71.9834 3.76858L79.4718 16.8969C81.3308 20.1559 78.1757 25.8919 71.6907 32.3021C67.8589 36.0895 62.8646 40.1124 57.0553 43.9986ZM53.2373 39.3712C54.2178 38.7983 54.5564 37.5342 53.9938 36.5478C53.4312 35.5615 52.1803 35.2263 51.1999 35.7992C50.2195 36.3721 49.8808 37.6362 50.4434 38.6226C51.006 39.6089 52.2569 39.9441 53.2373 39.3712Z" fill="white"/>
</svg>
