<svg width="24" height="24" viewBox="0 0 24 24" fill="none" xmlns="http://www.w3.org/2000/svg">
<path d="M8.22772 2H15.7717C17.0438 1.99998 18.0693 1.99997 18.8757 2.10839C19.7131 2.22097 20.4181 2.4618 20.978 3.02172C21.5379 3.58164 21.7787 4.28664 21.8913 5.12395C21.9997 5.93044 21.9997 6.95585 21.9997 8.22803V11.0458C21.9997 11.4312 21.6873 11.7435 21.302 11.7435C20.9167 11.7435 20.6043 11.4312 20.6043 11.0458V8.27907C20.6043 6.9438 20.6029 6.01253 20.5084 5.30988C20.4166 4.6273 20.2488 4.26584 19.9913 4.00838C19.7339 3.75093 19.3724 3.58307 18.6898 3.4913C17.9872 3.39683 17.0559 3.39535 15.7206 3.39535H8.27877C6.94349 3.39535 6.01223 3.39683 5.30958 3.4913C4.62699 3.58307 4.26553 3.75093 4.00808 4.00838C3.75062 4.26584 3.58277 4.6273 3.491 5.30988C3.39653 6.01253 3.39505 6.9438 3.39505 8.27907V15.7209C3.39505 17.0562 3.39653 17.9875 3.491 18.6901C3.58277 19.3727 3.75062 19.7342 4.00808 19.9916C4.26553 20.2491 4.62699 20.4169 5.30958 20.5087C6.01223 20.6032 6.94349 20.6047 8.27877 20.6047H11.0466C11.4319 20.6047 11.7443 20.917 11.7443 21.3023C11.7443 21.6876 11.4319 22 11.0466 22H8.22772C6.95555 22 5.93013 22 5.12365 21.8916C4.28634 21.779 3.58134 21.5382 3.02142 20.9783C2.46149 20.4184 2.22066 19.7134 2.10809 18.876C1.99966 18.0696 1.99968 17.0442 1.9997 15.772V8.22802C1.99968 6.95586 1.99966 5.93043 2.10809 5.12395C2.22066 4.28664 2.46149 3.58164 3.02142 3.02172C3.58134 2.4618 4.28634 2.22097 5.12365 2.10839C5.93013 1.99997 6.95555 1.99998 8.22772 2Z" fill="#1F2633"/>
<path d="M18.3311 9.76263C18.151 9.91256 17.7758 9.84324 17.0254 9.70458C15.0615 9.34168 12.9579 9.91972 11.4389 11.4387C11.3828 11.4948 11.3279 11.5518 11.2743 11.6095C10.848 12.0687 10.6348 12.2984 10.4436 12.3817C10.2524 12.4651 10.0086 12.4651 9.52085 12.4651H6.4183C5.90455 12.4651 5.48807 12.0486 5.48807 11.5349V6.4186C5.48807 5.90485 5.90455 5.48837 6.4183 5.48837H17.5811C18.0948 5.48837 18.5113 5.90485 18.5113 6.4186V8.61334C18.5113 9.27958 18.5113 9.6127 18.3311 9.76263Z" fill="#1F2633"/>
<path d="M7.11597 14.3256C6.73066 14.3256 6.4183 14.6379 6.4183 15.0233C6.4183 15.4086 6.73066 15.7209 7.11597 15.7209H8.63527C9.02059 15.7209 9.33295 15.4086 9.33295 15.0233C9.33295 14.6379 9.02059 14.3256 8.63527 14.3256H7.11597Z" fill="#1F2633"/>
<path d="M6.4183 17.814C6.4183 17.4286 6.73066 17.1163 7.11597 17.1163H9.13527C9.52059 17.1163 9.83295 17.4286 9.83295 17.814C9.83295 18.1993 9.52059 18.5116 9.13527 18.5116H7.11597C6.73066 18.5116 6.4183 18.1993 6.4183 17.814Z" fill="#1F2633"/>
<path fill-rule="evenodd" clip-rule="evenodd" d="M12.429 12.429C14.3344 10.5237 17.4236 10.5237 19.329 12.429C21.0681 14.1682 21.2199 16.8935 19.7844 18.8047L21.797 20.8174C22.0676 21.0879 22.0676 21.5266 21.797 21.7971C21.5265 22.0676 21.0879 22.0676 20.8173 21.7971L18.8047 19.7844C16.8934 21.22 14.1681 21.0682 12.429 19.3291C10.5236 17.4237 10.5236 14.3344 12.429 12.429ZM18.3493 13.4087C16.985 12.0444 14.773 12.0444 13.4087 13.4087C12.0444 14.7731 12.0444 16.9851 13.4087 18.3494C14.773 19.7137 16.985 19.7137 18.3493 18.3494C19.7137 16.9851 19.7137 14.7731 18.3493 13.4087Z" fill="#1F2633"/>
</svg>
