<svg width="25" height="24" viewBox="0 0 25 24" fill="none" xmlns="http://www.w3.org/2000/svg">
<path fill-rule="evenodd" clip-rule="evenodd" d="M11.4968 3.02826C11.8665 3.13604 12.0781 3.52079 11.9695 3.88763L10.1825 9.92319H15.1509L13.3638 3.88763C13.2552 3.52079 13.4669 3.13604 13.8366 3.02826C14.2062 2.92048 14.594 3.13049 14.7026 3.49733L16.6052 9.92319L19.1316 9.92319C19.8216 9.92315 20.4136 9.92311 20.8812 9.98993C21.3816 10.0614 21.861 10.2242 22.2209 10.6447C22.5785 11.0625 22.6676 11.559 22.6667 12.0633C22.6658 12.5388 22.5825 13.1299 22.4845 13.8242L22.2209 15.6937C22.0666 16.7888 21.9417 17.6743 21.7542 18.3673C21.5594 19.0873 21.2762 19.6853 20.7488 20.1488C20.2197 20.6137 19.5906 20.8153 18.8536 20.9097C18.1475 21 17.2624 21 16.1726 21H9.16075C8.07095 21 7.18591 21 6.47979 20.9097C5.74273 20.8153 5.11366 20.6137 4.58457 20.1488C4.05712 19.6853 3.77393 19.0873 3.57912 18.3673C3.39165 17.6743 3.26682 16.7889 3.11243 15.6937L2.84883 13.8241C2.75092 13.1299 2.66754 12.5387 2.66669 12.0633C2.6658 11.559 2.75483 11.0625 3.11243 10.6447C3.47235 10.2242 3.95175 10.0614 4.45215 9.98993C4.91977 9.92311 5.51178 9.92315 6.20174 9.92319L8.72815 9.92319L10.6308 3.49733C10.7394 3.13049 11.1271 2.92048 11.4968 3.02826ZM4.65102 11.3604C4.31615 11.4082 4.22466 11.4841 4.17593 11.5411C4.12488 11.6007 4.06142 11.7106 4.06204 12.0609C4.06269 12.4292 4.13096 12.9247 4.2375 13.6804L4.48794 15.4566C4.65025 16.6078 4.76432 17.4078 4.92676 18.0083C5.08443 18.5911 5.26647 18.8985 5.50966 19.1122C5.7512 19.3245 6.07252 19.4615 6.65828 19.5364C7.26475 19.6141 8.05951 19.6154 9.20822 19.6154H16.1252C17.2739 19.6154 18.0686 19.6141 18.6751 19.5364C19.2609 19.4615 19.5822 19.3245 19.8237 19.1122C20.0669 18.8985 20.2489 18.5911 20.4066 18.0083C20.5691 17.4078 20.6831 16.6078 20.8454 15.4566L21.0959 13.6804C21.2024 12.9247 21.2707 12.4293 21.2713 12.0609C21.272 11.7106 21.2085 11.6007 21.1574 11.5411C21.1087 11.4841 21.0172 11.4082 20.6823 11.3604C20.3261 11.3095 19.8359 11.3078 19.0812 11.3078H6.25217C5.49752 11.3078 5.00732 11.3095 4.65102 11.3604ZM7.91891 13.0907C8.30051 13.0377 8.65312 13.3018 8.70648 13.6804L9.17159 16.9811C9.22495 17.3598 8.95886 17.7096 8.57726 17.7626C8.19565 17.8155 7.84305 17.5515 7.78969 17.1728L7.32457 13.8722C7.27121 13.4935 7.5373 13.1436 7.91891 13.0907ZM17.4145 13.0907C17.7961 13.1436 18.0622 13.4935 18.0088 13.8722L17.5437 17.1728C17.4903 17.5515 17.1377 17.8155 16.7561 17.7626C16.3745 17.7096 16.1084 17.3598 16.1618 16.9811L16.6269 13.6804C16.6803 13.3018 17.0329 13.0377 17.4145 13.0907ZM12.6667 13.1539C13.052 13.1539 13.3644 13.4639 13.3644 13.8462V17.077C13.3644 17.4593 13.052 17.7693 12.6667 17.7693C12.2814 17.7693 11.969 17.4593 11.969 17.077V13.8462C11.969 13.4639 12.2814 13.1539 12.6667 13.1539Z" fill="#929BB7"/>
</svg>
