<svg width="85" height="68" viewBox="0 0 85 68" fill="none" xmlns="http://www.w3.org/2000/svg">
<path d="M56.4112 30.694C49.3099 28.9331 42.1324 33.0926 40.3796 39.9847C38.3984 47.7754 42.3531 54.743 46.6036 59.5987C48.7518 62.0528 51.0428 64.0487 52.8635 65.4492C53.7748 66.1502 54.5777 66.7092 55.1977 67.1075C55.5065 67.3059 55.78 67.4709 56.0055 67.5958C56.159 67.6808 56.4744 67.8549 56.7828 67.9314C57.0912 68.0079 57.4525 68.0016 57.6284 67.9983C57.887 67.9934 58.207 67.9756 58.5741 67.9448C59.3111 67.883 60.2862 67.7648 61.4248 67.5722C63.6996 67.1873 66.6736 66.497 69.7411 65.3363C75.8105 63.0397 82.6298 58.7438 84.611 50.9531C86.3638 44.061 82.028 37.0464 74.9267 35.2855C71.2898 34.3836 67.6333 35.0357 64.6977 36.8088C62.9588 33.8765 60.048 31.5959 56.4112 30.694Z" fill="#FFB3AB"/>
<path d="M0.0866569 23.2316C-0.915781 12.9082 6.89422 3.72318 17.531 2.71604C22.9784 2.20025 28.1101 3.9309 31.9532 7.12348C35.1119 3.26794 39.8171 0.605886 45.2645 0.0900942C55.9013 -0.917041 65.3365 6.63512 66.339 16.9585C66.8802 22.5329 65.5086 27.5437 63.1423 31.921C61.3947 30.4548 59.2828 29.3497 56.9032 28.7596C48.752 26.7383 40.4531 31.5071 38.4206 39.4989C37.2084 44.2657 37.9883 48.7025 39.6607 52.566C39.4092 52.6852 39.1718 52.7946 38.9497 52.8943C38.4602 53.1138 38.029 53.2928 37.6758 53.4244C37.4356 53.5139 36.9418 53.6969 36.4799 53.7407C36.018 53.7844 35.498 53.6973 35.2449 53.6545C34.8729 53.5916 34.4151 53.4968 33.8923 53.3731C32.8426 53.1248 31.4617 52.7437 29.8615 52.2197C26.6644 51.173 22.5259 49.5347 18.3568 47.1973C10.1078 42.5725 1.21979 34.9009 0.0866569 23.2316Z" fill="white"/>
</svg>
