<svg width="32" height="33" viewBox="0 0 32 33" fill="none" xmlns="http://www.w3.org/2000/svg">
<path d="M12.5616 18.2445L12.5639 18.2461L12.5652 18.2473L12.5656 18.249L12.5656 18.2518L12.564 18.2542L12.5628 18.2554L12.561 18.2558L12.5582 18.2558L12.5559 18.2543L12.5546 18.253L12.5543 18.2513L12.5542 18.2485L12.5558 18.2461L12.5571 18.2449L12.5588 18.2445L12.5616 18.2445Z" fill="white"/>
<path d="M19.2091 14.2426L19.2119 14.2425L19.2142 14.2441L19.2158 14.2471L19.2158 14.2499L19.2143 14.2522L19.213 14.2535L19.2113 14.2538L19.2085 14.2539L19.2062 14.2523L19.2049 14.2511L19.2045 14.2493L19.2045 14.2465L19.2061 14.2442L19.2073 14.2429L19.2091 14.2426Z" fill="white"/>
<path fill-rule="evenodd" clip-rule="evenodd" d="M18.291 0.520816C17.298 0.395262 16.4549 0.855319 15.7154 1.42589C14.9877 1.98736 14.144 2.83103 13.1232 3.85193L3.35159 13.6235C2.33072 14.6443 1.48708 15.4879 0.925705 16.2156C0.355162 16.9551 -0.104726 17.7981 0.0208193 18.791C0.153737 19.8423 0.862313 20.4786 1.6426 20.9243C2.37178 21.3409 3.39109 21.7196 4.57677 22.16L6.23701 22.7769C7.82632 23.3675 8.28713 23.5642 8.61144 23.8886C8.93576 24.2129 9.13251 24.6737 9.72305 26.263L10.3399 27.9232C10.7804 29.1089 11.1591 30.1282 11.5757 30.8574C12.0214 31.6377 12.6577 32.3463 13.709 32.4792C14.7019 32.6047 15.5449 32.1448 16.2844 31.5743C17.0121 31.0129 17.8556 30.1693 18.8764 29.1485L28.648 19.3768C29.6689 18.356 30.5126 17.5123 31.0741 16.7846C31.6447 16.0451 32.1047 15.202 31.9792 14.209C31.8463 13.1577 31.1377 12.5214 30.3574 12.0756C29.6282 11.6591 28.6089 11.2804 27.4233 10.84L25.763 10.2231C24.1737 9.63251 23.7129 9.43575 23.3886 9.11144C23.0642 8.78713 22.8675 8.32631 22.2769 6.73701L21.6601 5.07679C21.2196 3.89109 20.8409 2.87179 20.4244 2.1426C19.9786 1.36231 19.3423 0.653734 18.291 0.520816ZM10.4268 17.6121C10.0744 18.7902 10.7437 20.0309 11.9218 20.3833C13.0999 20.7357 14.3406 20.0663 14.693 18.8882C15.0454 17.7102 14.3761 16.4694 13.198 16.117C12.0199 15.7646 10.7792 16.434 10.4268 17.6121ZM15.2156 12.6527C14.9229 12.1101 14.2457 11.9076 13.7032 12.2003C13.1606 12.493 12.958 13.1701 13.2508 13.7127L16.7297 20.1614C17.0225 20.704 17.6996 20.9065 18.2422 20.6138C18.7847 20.3211 18.9873 19.644 18.6946 19.1014L15.2156 12.6527ZM17.0771 13.6101C16.7246 14.7882 17.394 16.0289 18.5721 16.3813C19.7502 16.7337 20.9909 16.0644 21.3433 14.8863C21.6957 13.7082 21.0264 12.4675 19.8483 12.1151C18.6702 11.7627 17.4295 12.432 17.0771 13.6101Z" fill="white"/>
</svg>
