<svg width="24" height="24" viewBox="0 0 24 24" fill="none" xmlns="http://www.w3.org/2000/svg">
<path fill-rule="evenodd" clip-rule="evenodd" d="M10.8195 2C10.8313 2 10.8432 2.00001 10.8551 2.00001L13.1805 2C13.5073 1.99996 13.812 1.99992 14.0649 2.03098C14.3457 2.06547 14.6412 2.14565 14.9067 2.36194C15.1722 2.57824 15.3119 2.85256 15.4042 3.12209C15.4873 3.36479 15.5511 3.66501 15.6196 3.98711L15.7904 4.7907H20.3077C20.69 4.7907 21 5.10306 21 5.48838C21 5.87369 20.69 6.18605 20.3077 6.18605H3.69231C3.30996 6.18605 3 5.87369 3 5.48838C3 5.10306 3.30996 4.7907 3.69231 4.7907H8.20956L8.37298 4.02214C8.37548 4.01042 8.37796 3.99872 8.38044 3.98706C8.44888 3.66498 8.51268 3.36478 8.5958 3.12209C8.68812 2.85256 8.82782 2.57824 9.09331 2.36194C9.3588 2.14565 9.65425 2.06547 9.93511 2.03098C10.188 1.99992 10.4927 1.99996 10.8195 2ZM9.62561 4.7907H14.3744L14.2731 4.31451C14.1946 3.94517 14.1476 3.72991 14.0954 3.57735C14.0717 3.50821 14.0538 3.47394 14.0441 3.45821C14.0397 3.451 14.0368 3.44764 14.0368 3.44764L14.0355 3.44658C14.0355 3.44658 14.0317 3.44445 14.0237 3.44158C14.0064 3.43532 13.9695 3.42493 13.8974 3.41608C13.7384 3.39656 13.5197 3.39535 13.1449 3.39535H10.8551C10.4803 3.39535 10.2616 3.39656 10.1026 3.41608C10.0306 3.42493 9.99356 3.43532 9.97627 3.44158C9.96834 3.44445 9.96448 3.44658 9.96448 3.44658L9.96318 3.44764C9.96318 3.44764 9.9603 3.451 9.95585 3.45821C9.94616 3.47394 9.92833 3.50821 9.90465 3.57735C9.8524 3.72991 9.8054 3.94517 9.72686 4.31451L9.62561 4.7907ZM5.46201 8.05078C5.84202 8.00823 6.18431 8.28419 6.22653 8.66714L7.2462 17.9153C7.33503 18.7209 7.39568 19.2589 7.49189 19.6582C7.58346 20.0383 7.68759 20.2015 7.80594 20.3083C7.92428 20.415 8.09681 20.5013 8.48175 20.551C8.88623 20.6033 9.42349 20.6047 10.2279 20.6047H13.7722C14.5765 20.6047 15.1138 20.6033 15.5183 20.551C15.9032 20.5013 16.0757 20.415 16.1941 20.3083C16.3124 20.2015 16.4165 20.0383 16.5081 19.6582C16.6043 19.2589 16.665 18.7209 16.7538 17.9153L17.7735 8.66714C17.8157 8.28419 18.158 8.00823 18.538 8.05078C18.918 8.09333 19.1918 8.43828 19.1496 8.82123L18.125 18.1142C18.0424 18.8632 17.9733 19.4909 17.8536 19.9874C17.727 20.5131 17.5249 20.9806 17.1175 21.348C16.7101 21.7154 16.2268 21.8663 15.6944 21.9351C15.1914 22 14.5647 22 13.8169 22H10.1831C9.43527 22 8.80856 22 8.30565 21.9351C7.77319 21.8663 7.28987 21.7154 6.88251 21.348C6.47515 20.9806 6.27303 20.5131 6.14637 19.9874C6.02674 19.4909 5.95755 18.8632 5.875 18.1142L4.85039 8.82123C4.80816 8.43828 5.082 8.09333 5.46201 8.05078Z" fill="#1F2633"/>
<path fill-rule="evenodd" clip-rule="evenodd" d="M14.2055 9.80028C14.5916 9.8214 14.8874 10.1515 14.8663 10.5375L14.4657 17.8584C14.4446 18.2444 14.1146 18.5402 13.7285 18.5191C13.3425 18.498 13.0467 18.1679 13.0678 17.7819L13.4683 10.461C13.4895 10.075 13.8195 9.77916 14.2055 9.80028ZM9.79705 9.80015C10.1831 9.78046 10.5121 10.0775 10.5318 10.4636L10.9051 17.7845C10.9248 18.1706 10.6278 18.4996 10.2417 18.5193C9.85558 18.5389 9.52662 18.2419 9.50694 17.8558L9.13361 10.5349C9.11392 10.1488 9.41095 9.81983 9.79705 9.80015Z" fill="#1F2633"/>
</svg>
