<svg width="24" height="24" viewBox="0 0 24 24" fill="none" xmlns="http://www.w3.org/2000/svg">
<path fill-rule="evenodd" clip-rule="evenodd" d="M14.6298 2H6.74836C5.91259 1.99998 5.2156 1.99995 4.66233 2.07434C4.07833 2.15286 3.55108 2.32557 3.12738 2.74927C2.70369 3.17296 2.53097 3.70021 2.45246 4.28421C2.37807 4.83749 2.37809 5.53444 2.37812 6.37023L2.37812 7.0646H1.69767C1.31236 7.0646 1 7.37696 1 7.76228C1 8.14759 1.31236 8.45995 1.69767 8.45995H2.37812V11.3023H1.69767C1.31236 11.3023 1 11.6147 1 12C1 12.3853 1.31236 12.6977 1.69767 12.6977H2.37812V15.5401H1.69767C1.31236 15.5401 1 15.8524 1 16.2377C1 16.623 1.31236 16.9354 1.69767 16.9354H2.37812L2.37812 17.6298C2.37809 18.4656 2.37807 19.1625 2.45246 19.7158C2.53097 20.2998 2.70369 20.827 3.12738 21.2507C3.55108 21.6744 4.07833 21.8471 4.66233 21.9257C5.21561 22.0001 5.91256 22 6.74836 22H14.6298C15.4656 22 16.1625 22.0001 16.7158 21.9257C17.2998 21.8471 17.827 21.6744 18.2507 21.2507C18.6744 20.827 18.8471 20.2998 18.9257 19.7158C19 19.1625 19 18.4656 19 17.6298V6.37024C19 5.53444 19 4.83749 18.9257 4.28421C18.8471 3.70021 18.6744 3.17296 18.2507 2.74927C17.827 2.32557 17.2998 2.15286 16.7158 2.07434C16.1625 1.99995 15.4655 1.99998 14.6298 2ZM7.24376 7.06445C6.85844 7.06445 6.54608 7.37681 6.54608 7.76213C6.54608 8.14744 6.85844 8.4598 7.24376 8.4598H14.1344C14.5197 8.4598 14.832 8.14744 14.832 7.76213C14.832 7.37681 14.5197 7.06445 14.1344 7.06445H7.24376ZM7.24376 11.3022C6.85844 11.3022 6.54608 11.6145 6.54608 11.9999C6.54608 12.3852 6.85844 12.6975 7.24376 12.6975H14.1344C14.5197 12.6975 14.832 12.3852 14.832 11.9999C14.832 11.6145 14.5197 11.3022 14.1344 11.3022H7.24376ZM6.54608 16.2376C6.54608 15.8523 6.85844 15.5399 7.24376 15.5399H14.1344C14.5197 15.5399 14.832 15.8523 14.832 16.2376C14.832 16.6229 14.5197 16.9353 14.1344 16.9353H7.24376C6.85844 16.9353 6.54608 16.6229 6.54608 16.2376Z" fill="white"/>
<path d="M23 10.6875L22.9995 15.4931C22.9995 16.0226 22.9994 16.2874 22.9321 16.5403C22.8647 16.7933 22.733 17.023 22.4696 17.4824L22.1998 17.9528C22.0457 18.2216 21.9686 18.356 21.8527 18.356C21.7369 18.356 21.6598 18.2216 21.5058 17.9528L21.2361 17.4822C20.9728 17.0228 20.8411 16.7931 20.7738 16.5401C20.7064 16.2872 20.7065 16.0224 20.7065 15.4929L20.707 10.6873C20.7071 10.0541 21.2204 9.54083 21.8536 9.54089C22.4868 9.54095 23 10.0543 23 10.6875Z" fill="white"/>
<path d="M20.7074 7.14532C20.7073 7.77789 21.2212 8.29074 21.8537 8.2908C22.4863 8.29086 23.0003 7.77811 23.0004 7.14553C23.0004 6.51295 22.4866 6.00009 21.854 6.00003C21.2214 5.99997 20.7074 6.51273 20.7074 7.14532Z" fill="white"/>
</svg>
