<svg width="103" height="69" viewBox="0 0 103 69" fill="none" xmlns="http://www.w3.org/2000/svg">
<path fill-rule="evenodd" clip-rule="evenodd" d="M99.1038 40.3339C97.5111 34.3324 86.626 29.6886 73.4351 29.6886C60.2442 29.6886 49.3591 34.3324 47.7664 40.3339L43.8702 54.9602C43.8702 56.8029 44.6349 58.631 46.1209 60.3348C47.6064 62.0349 49.784 63.5852 52.5296 64.8868C55.2751 66.192 58.534 67.2267 62.1209 67.9324C65.7083 68.638 69.5527 69 73.4351 69C77.3175 69 81.162 68.638 84.7493 67.9324C88.3362 67.2267 91.5951 66.192 94.3407 64.8868C97.0862 63.5852 99.2638 62.0349 100.749 60.3348C102.235 58.631 103 56.8029 103 54.9602L99.1038 40.3339ZM90.1714 47.0628C94.5698 44.9971 95.6088 42.8874 95.6088 41.8564C95.6088 40.8253 94.5698 38.7157 90.1714 36.65C86.0788 34.7231 80.1654 33.4325 73.4351 33.4325C66.7048 33.4325 60.7915 34.7231 56.6988 36.65C52.3004 38.7157 51.2614 40.8253 51.2614 41.8564C51.2614 42.8874 52.3004 44.9971 56.6988 47.0628C60.7915 48.9896 66.7048 50.2803 73.4351 50.2803C80.1654 50.2803 86.0788 48.9896 90.1714 47.0628Z" fill="white"/>
<path d="M90.1714 47.0613C94.5698 44.9955 95.6088 42.8859 95.6088 41.8548C95.6088 40.8238 94.5698 38.7142 90.1714 36.6484C86.0788 34.7216 80.1654 33.431 73.4351 33.431C66.7048 33.431 60.7914 34.7216 56.6988 36.6484C52.3004 38.7142 51.2614 40.8238 51.2614 41.8548C51.2614 42.8859 52.3004 44.9955 56.6988 47.0613C60.7914 48.9881 66.7048 50.2787 73.4351 50.2787C80.1654 50.2787 86.0788 48.9881 90.1714 47.0613Z" fill="#8AC9F8"/>
<path fill-rule="evenodd" clip-rule="evenodd" d="M36.7176 0C53.0997 0 66.6183 5.68829 68.5964 13.0397L72.5527 27.6886C66.0804 27.7871 60.121 28.9662 55.4733 30.9101C50.735 32.892 46.8646 35.8916 45.8218 39.8193L45.8215 39.8203L43.6848 47.8415C41.3944 48.0485 39.0615 48.1533 36.7176 48.1533C31.8959 48.1533 27.1213 47.7099 22.6661 46.8456C18.2114 45.9812 14.1641 44.7138 10.7543 43.1149C7.34452 41.5206 4.64012 39.6217 2.79516 37.5392C0.94965 35.4522 0 33.2129 0 30.9557L4.83876 13.0397C6.81682 5.68829 20.3354 0 36.7176 0ZM64.2557 14.9046C64.2557 16.1675 62.9654 18.7517 57.5028 21.282C52.4201 23.6422 45.0762 25.2232 36.7176 25.2232C28.359 25.2232 21.015 23.6422 15.9323 21.282C10.4697 18.7517 9.17939 16.1675 9.17939 14.9046C9.17939 13.6416 10.4697 11.0575 15.9323 8.52715C21.015 6.16695 28.359 4.58603 36.7176 4.58603C45.0762 4.58603 52.4201 6.16695 57.5028 8.52715C62.9654 11.0575 64.2557 13.6416 64.2557 14.9046Z" fill="white"/>
<path d="M57.5028 21.282C62.9654 18.7517 64.2557 16.1675 64.2557 14.9046C64.2557 13.6416 62.9654 11.0575 57.5028 8.52715C52.4201 6.16695 45.0762 4.58603 36.7176 4.58603C28.359 4.58603 21.015 6.16695 15.9323 8.52715C10.4697 11.0575 9.17939 13.6416 9.17939 14.9046C9.17939 16.1675 10.4697 18.7517 15.9323 21.282C21.015 23.6422 28.359 25.2232 36.7176 25.2232C45.0762 25.2232 52.4201 23.6422 57.5028 21.282Z" fill="#8AC9F8"/>
</svg>
