<svg width="84" height="52" viewBox="0 0 84 52" fill="none" xmlns="http://www.w3.org/2000/svg">
<path d="M41.9231 29.0132C57.9091 29.0132 70.8683 28.9918 70.8683 20.7857C70.8683 16.5 67.3337 11.0214 61.6793 6.76492C61.5819 6.69161 61.4838 6.61865 61.3852 6.54607C59.2682 4.98845 56.8648 3.6035 54.2466 2.51319C50.5076 0.956146 46.3304 0 41.9231 0C37.5159 0 33.3387 0.956146 29.5997 2.51319C29.5244 2.54456 29.4492 2.57617 29.3743 2.60802C26.722 3.73492 24.2945 5.16343 22.1671 6.76492C16.5127 11.0214 12.9781 16.5 12.9781 20.7857C12.9781 28.9918 25.9372 29.0132 41.9231 29.0132Z" fill="#FFDEAD"/>
<path d="M68.5145 6.76492H64.8515C64.4579 6.42073 64.0526 6.08244 63.6362 5.7509C62.1692 4.58279 60.5525 3.48941 58.8101 2.51319H68.644C70.5611 2.51311 72.1942 2.51304 73.5192 2.67297C74.9332 2.84365 76.249 3.22006 77.3987 4.14791C78.5485 5.07575 79.1794 6.27034 79.6238 7.5994C80.0403 8.84485 80.3565 10.4181 80.7278 12.265L83.604 26.5688C83.836 27.7189 84.0208 28.6346 83.9981 29.4437C83.9062 32.7273 81.5587 35.532 78.2957 36.2565C77.8122 36.3639 77.2756 36.4065 76.665 36.4232L74.3484 43.2472C73.8132 44.8241 73.3548 46.1745 72.8501 47.2398C72.3102 48.3794 71.6313 49.3887 70.5465 50.1565C69.4616 50.9243 68.2717 51.2375 67 51.38C65.8112 51.5133 64.3616 51.5133 62.6689 51.5132H21.3312C19.6385 51.5133 18.1888 51.5133 17 51.38C15.7283 51.2375 14.5384 50.9243 13.4535 50.1565C12.3687 49.3887 11.6898 48.3794 11.1499 47.2398C10.6452 46.1745 10.1868 44.8242 9.65165 43.2474L7.33502 36.4232C6.72439 36.4065 6.18784 36.3639 5.70435 36.2565C2.44132 35.532 0.0938151 32.7273 0.00188243 29.4437C-0.0207733 28.6344 0.164041 27.7185 0.396178 26.5681L3.27224 12.2648C3.64349 10.4181 3.95975 8.84481 4.37619 7.5994C4.8206 6.27034 5.45154 5.07576 6.60128 4.14791C7.75102 3.22006 9.06679 2.84365 10.4808 2.67297C11.8058 2.51304 13.4389 2.51311 15.356 2.51319H25.0362C23.2938 3.48941 21.6772 4.5828 20.2101 5.75091C19.7937 6.08244 19.3884 6.42073 18.9949 6.76492H15.4856C13.4033 6.76492 12.0387 6.76867 11.0091 6.89294C10.0387 7.01007 9.6274 7.20926 9.35061 7.43263C9.07383 7.65599 8.79514 8.01366 8.49016 8.92572C8.16657 9.89346 7.89851 11.2073 7.49519 13.2132L4.69182 27.1555C4.38896 28.6618 4.32284 29.0607 4.33029 29.3268C4.36784 30.6681 5.32668 31.8136 6.65946 32.1096C6.92391 32.1683 7.33535 32.1819 8.89899 32.1819H75.101C76.6646 32.1819 77.0761 32.1683 77.3405 32.1096C78.6733 31.8136 79.6322 30.6681 79.6697 29.3268C79.6772 29.0607 79.6111 28.6618 79.3082 27.1555L76.5048 13.2132C76.1015 11.2073 75.8334 9.89346 75.5098 8.92572C75.2049 8.01367 74.9262 7.65599 74.6494 7.43263C74.3726 7.20926 73.9613 7.01007 72.9909 6.89294C71.9613 6.76867 70.5967 6.76492 68.5145 6.76492Z" fill="white"/>
</svg>
