<svg width="25" height="24" viewBox="0 0 25 24" fill="none" xmlns="http://www.w3.org/2000/svg">
<path fill-rule="evenodd" clip-rule="evenodd" d="M11.3699 5.56023C10.4106 4.59421 9.10514 4 7.66671 4C4.72119 4 2.33337 6.49164 2.33337 9.56522C2.33337 15.3282 10.3334 20 12.3334 20C14.3334 20 22.3334 15.3282 22.3334 9.56522C22.3334 6.49164 19.9456 4 17 4C15.5616 4 14.2562 4.59421 13.2969 5.56023C13.283 5.57424 13.2691 5.58832 13.2554 5.60248C12.9788 5.88706 12.7319 6.20292 12.5199 6.54457C12.4873 6.59721 12.4554 6.65047 12.4244 6.70432C12.3845 6.77376 12.2823 6.77376 12.2423 6.70432C12.2113 6.65047 12.1795 6.59721 12.1468 6.54457C11.9348 6.20292 11.6879 5.88706 11.4114 5.60248C11.3976 5.58832 11.3838 5.57424 11.3699 5.56023ZM12.3334 18.4998C12.3244 18.4991 12.2826 18.4957 12.2018 18.4786C12.1036 18.4578 11.9733 18.4224 11.8109 18.3674C11.4852 18.257 11.077 18.0836 10.6108 17.8448C9.67821 17.3673 8.58508 16.6654 7.54766 15.7947C5.40272 13.9946 3.83337 11.7686 3.83337 9.56522C3.83337 7.25926 5.60914 5.5 7.66671 5.5C9.03029 5.5 10.2555 6.2592 10.9422 7.45248C11.8328 9 12.8334 9.00107 13.7245 7.45248C14.4112 6.2592 15.6365 5.5 17 5.5C19.0576 5.5 20.8334 7.25926 20.8334 9.56522C20.8334 11.7686 19.264 13.9946 17.1191 15.7947C16.0817 16.6654 14.9885 17.3673 14.056 17.8448C13.5897 18.0836 13.1816 18.257 12.8558 18.3674C12.6935 18.4224 12.5632 18.4578 12.4649 18.4786C12.3841 18.4957 12.3424 18.4991 12.3334 18.4998Z" fill="#929BB7"/>
</svg>
