<svg width="24" height="24" viewBox="0 0 24 24" fill="none" xmlns="http://www.w3.org/2000/svg">
<path d="M7.64983 2.17136C8.69464 1.31124 10.1602 1.24579 11.2735 2.00954C12.3368 2.73897 12.6559 4.19917 11.9984 5.32678L11.5117 6.15007C11.3318 6.45447 11.0065 6.64121 8.65289 6.64121H6.96832C4.65235 6.64121 4.34376 6.49669 4.21868 6.20653C3.63006 4.84101 4.3047 2.81222 5.90825 2.81222H6.35603C6.68962 2.81222 7.01328 2.69539 7.27377 2.48095L7.64983 2.17136Z" fill="#01A0E2"/>
<path d="M18.5417 3.57301C19.3182 3.37324 20.1306 3.37324 20.9071 3.57301C22.6662 4.02555 23.3794 6.20002 22.2467 7.65704L22.1297 7.80763C21.9973 7.97794 21.7968 8.07708 20.5849 8.07708H18.8639C17.652 8.07708 17.4516 7.97794 17.3192 7.80763L17.2021 7.65704C16.0694 6.20002 16.7826 4.02555 18.5417 3.57301Z" fill="#01A0E2"/>
<path d="M13.0082 13.1095C13.3683 12.9049 13.4944 12.447 13.2897 12.0869C13.0851 11.7268 12.6272 11.6007 12.2671 11.8054L5.03223 15.9168C4.6721 16.1214 4.54606 16.5792 4.75071 16.9394C4.95536 17.2995 5.4132 17.4255 5.77333 17.2209L13.0082 13.1095Z" fill="#01A0E2"/>
<path fill-rule="evenodd" clip-rule="evenodd" d="M12.9813 8.78174L5.90406 8.78174C5.00559 8.78171 4.25635 8.78169 3.66158 8.86165C3.03378 8.94606 2.46698 9.13173 2.01151 9.5872C1.55604 10.0427 1.37037 10.6095 1.28597 11.2373C1.206 11.832 1.20603 12.5813 1.20606 13.4797V15.5837C1.20603 16.4822 1.206 17.2314 1.28597 17.8262C1.37037 18.454 1.55604 19.0208 2.01151 19.4763C2.46698 19.9318 3.03378 20.1174 3.66158 20.2018C3.94671 20.2402 4.26734 20.2601 4.62289 20.2705C4.61486 20.3226 4.61078 20.3845 4.61078 20.4595C4.61078 20.7302 4.66412 20.9984 4.76773 21.2485C4.87137 21.4987 5.02325 21.7261 5.21472 21.9175C5.40619 22.109 5.63351 22.2609 5.8837 22.3645C6.13388 22.4681 6.40201 22.5215 6.67279 22.5215C6.94357 22.5215 7.2117 22.4681 7.46188 22.3645C7.71207 22.2609 7.93939 22.109 8.13086 21.9175C8.32233 21.7261 8.47421 21.4987 8.57785 21.2485C8.68146 20.9984 8.7348 20.7302 8.7348 20.4595C8.7348 20.3899 8.73128 20.3315 8.72435 20.2817L16.1645 20.2817C16.1594 20.3407 16.1569 20.4 16.1569 20.4595C16.1569 21.0063 16.3741 21.5308 16.7608 21.9175C17.1475 22.3042 17.672 22.5215 18.2189 22.5215C18.7657 22.5215 19.2902 22.3042 19.6769 21.9175C20.0636 21.5308 20.2809 21.0063 20.2809 20.4595C20.2809 20.3999 20.2783 20.3405 20.2732 20.2814C20.6 20.2798 20.8995 20.2726 21.1533 20.2384C21.5087 20.1906 21.8845 20.0782 22.1935 19.7692C22.5025 19.4602 22.615 19.0844 22.6628 18.7289C22.7062 18.4061 22.7061 18.0093 22.7061 17.5765L22.7061 16.2068L22.7062 16.1415C22.7068 15.8741 22.7075 15.5861 22.6141 15.3096C22.5208 15.0331 22.3457 14.8044 22.1832 14.5921L22.1435 14.5402L20.8672 12.8651L20.8095 12.789C20.5767 12.4812 20.3248 12.1483 19.9518 11.9635C19.5788 11.7788 19.1613 11.7802 18.7754 11.7815L18.6798 11.7817H16.7015C16.6985 11.6392 16.6936 11.5075 16.6853 11.3864C16.6637 11.0693 16.617 10.7697 16.4967 10.4794C16.2176 9.80553 15.6823 9.27018 15.0084 8.99107C14.718 8.87079 14.4185 8.82415 14.1014 8.80251C13.7968 8.78173 13.4257 8.78173 12.9813 8.78174ZM16.7061 18.7817V13.2817H18.6798C18.9358 13.2817 19.0799 13.2824 19.1874 13.2918C19.2354 13.2961 19.2613 13.301 19.2743 13.3042C19.2804 13.3057 19.2836 13.3068 19.2847 13.3072L19.286 13.3077L19.2873 13.3085C19.2882 13.3091 19.291 13.3109 19.2959 13.3149C19.3063 13.3233 19.326 13.3409 19.3584 13.3766C19.4311 13.4563 19.519 13.5706 19.6741 13.7742L20.9503 15.4493C21.0572 15.5896 21.1163 15.6677 21.1573 15.7292C21.1755 15.7566 21.1846 15.7725 21.189 15.781C21.1911 15.785 21.1921 15.7873 21.1925 15.7882L21.1929 15.7893L21.1932 15.7905C21.1935 15.7914 21.1941 15.7939 21.1948 15.7984C21.1965 15.8078 21.1989 15.8259 21.201 15.8587C21.2057 15.9325 21.2061 16.0305 21.2061 16.2068V17.5317C21.2061 18.0243 21.2045 18.3184 21.1761 18.5291C21.1632 18.6256 21.1479 18.674 21.1389 18.6958C21.1368 18.7008 21.1352 18.7041 21.1342 18.7061L21.1328 18.7085L21.1304 18.7099L21.1259 18.7121L21.1201 18.7146C21.0983 18.7235 21.05 18.7388 20.9534 18.7518C20.7427 18.7801 20.4487 18.7817 19.9561 18.7817H16.7061ZM15.2061 12.5317V18.7817H5.95606C4.99205 18.7817 4.34449 18.7801 3.86145 18.7152C3.39999 18.6532 3.20249 18.5459 3.07217 18.4156C2.94186 18.2853 2.83463 18.0878 2.77259 17.6263C2.70765 17.1433 2.70606 16.4958 2.70606 15.5317V13.5317C2.70606 12.5677 2.70765 11.9202 2.77259 11.4371C2.83463 10.9757 2.94186 10.7782 3.07217 10.6479C3.20249 10.5175 3.39999 10.4103 3.86145 10.3483C4.34449 10.2833 4.99205 10.2817 5.95606 10.2817H12.9561C13.4323 10.2817 13.7519 10.2821 13.9993 10.299C14.24 10.3155 14.3573 10.3449 14.4344 10.3769C14.7407 10.5038 14.984 10.7471 15.1109 11.0534C15.1429 11.1305 15.1723 11.2478 15.1888 11.4885C15.2057 11.7359 15.2061 12.0555 15.2061 12.5317Z" fill="#01A0E2"/>
</svg>
