<svg width="257" height="174" viewBox="0 0 257 174" fill="none" xmlns="http://www.w3.org/2000/svg">
<path d="M147.61 45.1943H158.192V55.7763H147.61V45.1943Z" fill="#2A2927"/>
<path d="M99.9905 47.8398H110.573V58.4219H99.9905V47.8398Z" fill="#2A2927"/>
<path d="M131.737 26.6757H142.319V47.8398H131.737V26.6757Z" fill="#2A2927"/>
<path d="M115.864 26.6757H126.446V47.8398H115.864V26.6757Z" fill="#2A2927"/>
<path d="M118.509 53.1308H139.673V63.7129H150.255V84.877H139.673V79.586H118.509V84.877H107.927V63.7129H118.509V53.1308Z" fill="#2A2927"/>
<path d="M144.473 42.9756H155.055V53.5576H144.473V42.9756Z" fill="#01A0E2"/>
<path d="M96.8538 45.6211H107.436V56.2031H96.8538V45.6211Z" fill="#01A0E2"/>
<path d="M128.6 24.457H139.182V45.6211H128.6V24.457Z" fill="#01A0E2"/>
<path d="M112.727 24.457H123.309V45.6211H112.727V24.457Z" fill="#01A0E2"/>
<path d="M115.372 50.9121H136.537V61.4941H147.119V82.6582H136.537V77.3672H115.372V82.6582H104.79V61.4941H115.372V50.9121Z" fill="#E31E25"/>
<path d="M144.473 42.9756H155.055V53.5576H144.473V42.9756Z" stroke="#2A2927" stroke-width="0.3"/>
<path d="M96.8538 45.6211H107.436V56.2031H96.8538V45.6211Z" stroke="#2A2927" stroke-width="0.3"/>
<path d="M128.6 24.457H139.182V45.6211H128.6V24.457Z" stroke="#2A2927" stroke-width="0.3"/>
<path d="M112.727 24.457H123.309V45.6211H112.727V24.457Z" stroke="#2A2927" stroke-width="0.3"/>
<path d="M115.372 50.9121H136.537V61.4941H147.119V82.6582H136.537V77.3672H115.372V82.6582H104.79V61.4941H115.372V50.9121Z" stroke="#2A2927" stroke-width="0.3"/>
<rect x="3.04553" y="168.335" width="253" height="5" fill="#2B292A"/>
<rect x="93.0455" y="166.335" width="161" height="5" fill="#E31E25" stroke="#2A2927" stroke-width="0.3"/>
<rect x="1.04553" y="166.335" width="92" height="5" fill="#01A0E2" stroke="#2A2927" stroke-width="0.3"/>
<path fill-rule="evenodd" clip-rule="evenodd" d="M47.951 122.837H60.8452V127.207H65.365V131.45H69.78V152.927H61.1288V144.248H47.9128V152.927H39.2616V131.45H43.7148V127.207H47.951V122.837ZM61.1288 131.45H56.8926V127.207H52.1873V131.45H47.9128V140.128H61.1288V131.45Z" fill="#2A2927"/>
<path d="M78.2681 122.837H100.008V126.956H78.2681V122.837Z" fill="#2A2927"/>
<path fill-rule="evenodd" clip-rule="evenodd" d="M34.9359 149.072V122.837H13.3818V140.19H8.90967V149.072H4.82849V157.353H12.9907V152.906H30.6104V157.353H39.2616V149.072H34.9359ZM17.3947 126.956V148.786H26.2847V126.956H17.3947Z" fill="#2A2927"/>
<path d="M82.7573 131.45H74.1061V152.927H87.0165V148.601H91.4393L91.4394 144.364H95.6819V152.927H104.333V131.45H95.6819V135.892H91.4394L91.4393 140.128H87.0165V144.454H82.774L82.7573 131.45Z" fill="#2A2927"/>
<path fill-rule="evenodd" clip-rule="evenodd" d="M164.34 122.837H177.234V127.207H181.754V131.45H186.169V152.927H177.517V144.248H164.301V152.927H155.65V131.45H160.103V127.207H164.34V122.837ZM177.517 131.45H173.281V127.207H168.576V131.45H164.301V140.128H177.517V131.45Z" fill="#2A2927"/>
<path d="M151.76 123.344V152.927H143.109V127.464H134.219V148.237H130.206V152.927H122.044V144.646H126.316V140.319H130.206V123.344H151.76Z" fill="#2A2927"/>
<path d="M189.146 123.344H219.352V152.927H210.7V127.464H197.798V152.927H189.146V123.344Z" fill="#2A2927"/>
<path d="M223.279 123.344H231.931V136.047H244.611V123.344H253.262V148.807H248.569V152.927H227.605V148.807H223.279V144.687H231.931V148.807H244.611V140.167H227.605V136.047H223.279V123.344Z" fill="#2A2927"/>
<path fill-rule="evenodd" clip-rule="evenodd" d="M44.8601 120.144H57.7543V124.514H62.274V128.757H66.6891V150.234H58.0378V141.555H44.8219V150.234H36.1707V128.757H40.6239V124.514H44.8601V120.144ZM58.0378 128.757H53.8016V124.514H49.0963V128.757H44.8219V137.435H58.0378V128.757Z" fill="#01A0E2"/>
<path d="M75.1771 120.144H96.9166V124.264H75.1771V120.144Z" fill="#01A0E2"/>
<path fill-rule="evenodd" clip-rule="evenodd" d="M31.845 146.379V120.144H10.2909V137.498H5.81873V146.379H1.73755V154.66H9.89978V150.214H27.5194V154.66H36.1707V146.379H31.845ZM14.3037 124.264V146.094H23.1937V124.264H14.3037Z" fill="#01A0E2"/>
<path d="M79.6664 128.757H71.0151V150.234H83.9255V145.908H88.3484L88.3484 141.672H92.5909V150.234H101.242V128.757H92.5909V133.199H88.3484L88.3484 137.435H83.9255V141.761H79.683L79.6664 128.757Z" fill="#01A0E2"/>
<path fill-rule="evenodd" clip-rule="evenodd" d="M161.249 120.144H174.143V124.514H178.663V128.757H183.078V150.234H174.426V141.555H161.21V150.234H152.559V128.757H157.012V124.514H161.249V120.144ZM174.426 128.757H170.19V124.514H165.485V128.757H161.21V137.435H174.426V128.757Z" fill="#E31E25"/>
<path d="M148.67 120.651V150.234H140.018V124.771H131.128V145.544H127.115V150.234H118.953V141.953H123.225V137.626H127.115V120.651H148.67Z" fill="#E31E25"/>
<path d="M186.055 120.651H216.261V150.234H207.609V124.771H194.707V150.234H186.055V120.651Z" fill="#E31E25"/>
<path d="M220.188 120.651H228.84V133.354H241.52V120.651H250.172V146.114H245.478V150.234H224.514V146.114H220.188V141.994H228.84V146.114H241.52V137.474H224.514V133.354H220.188V120.651Z" fill="#E31E25"/>
<path fill-rule="evenodd" clip-rule="evenodd" d="M44.8601 120.144H57.7543V124.514H62.274V128.757H66.6891V150.234H58.0378V141.555H44.8219V150.234H36.1707V128.757H40.6239V124.514H44.8601V120.144ZM58.0378 128.757H53.8016V124.514H49.0963V128.757H44.8219V137.435H58.0378V128.757Z" stroke="#2A2927" stroke-width="0.3"/>
<path d="M75.1771 120.144H96.9166V124.264H75.1771V120.144Z" stroke="#2A2927" stroke-width="0.3"/>
<path fill-rule="evenodd" clip-rule="evenodd" d="M31.845 146.379V120.144H10.2909V137.498H5.81873V146.379H1.73755V154.66H9.89978V150.214H27.5194V154.66H36.1707V146.379H31.845ZM14.3037 124.264V146.094H23.1937V124.264H14.3037Z" stroke="#2A2927" stroke-width="0.3"/>
<path d="M79.6664 128.757H71.0151V150.234H83.9255V145.908H88.3484L88.3484 141.672H92.5909V150.234H101.242V128.757H92.5909V133.199H88.3484L88.3484 137.435H83.9255V141.761H79.683L79.6664 128.757Z" stroke="#2A2927" stroke-width="0.3"/>
<path fill-rule="evenodd" clip-rule="evenodd" d="M161.249 120.144H174.143V124.514H178.663V128.757H183.078V150.234H174.426V141.555H161.21V150.234H152.559V128.757H157.012V124.514H161.249V120.144ZM174.426 128.757H170.19V124.514H165.485V128.757H161.21V137.435H174.426V128.757Z" stroke="#2A2927" stroke-width="0.3"/>
<path d="M148.67 120.651V150.234H140.018V124.771H131.128V145.544H127.115V150.234H118.953V141.953H123.225V137.626H127.115V120.651H148.67Z" stroke="#2A2927" stroke-width="0.3"/>
<path d="M186.055 120.651H216.261V150.234H207.609V124.771H194.707V150.234H186.055V120.651Z" stroke="#2A2927" stroke-width="0.3"/>
<path d="M220.188 120.651H228.84V133.354H241.52V120.651H250.172V146.114H245.478V150.234H224.514V146.114H220.188V141.994H228.84V146.114H241.52V137.474H224.514V133.354H220.188V120.651Z" stroke="#2A2927" stroke-width="0.3"/>
</svg>
