<svg width="80" height="48" viewBox="0 0 80 48" fill="none" xmlns="http://www.w3.org/2000/svg">
<path d="M78.6131 17.7677C75.3145 17.7677 72.6369 20.3684 72.6036 23.5889C72.6369 26.8095 75.3145 29.4102 78.6131 29.4102C79.5783 29.4102 80 29.8303 80 30.7746L79.9999 30.8767L80 30.8962C80 32.8546 79.941 34.4841 79.6907 35.8203C79.4331 37.1919 78.9424 38.3584 77.9713 39.3092C76.8578 40.398 75.4557 40.8646 73.7905 41.0838C72.5441 41.2499 71.0347 41.2852 69.2364 41.2923C68.5878 44.6434 65.5793 47.1779 61.9658 47.1779C58.3524 47.1779 55.3438 44.6434 54.6953 41.2923C52.8969 41.2852 51.3876 41.2499 50.1411 41.0837C48.4759 40.8646 47.0739 40.398 45.9603 39.3092C44.8468 38.217 44.3678 36.8454 44.144 35.2194C43.9764 33.9999 43.939 32.5223 43.9307 30.7619C40.5059 30.1292 37.9159 27.1846 37.9159 23.6497L37.9162 23.5889L37.9159 23.5281C37.9159 19.9932 40.5059 17.0487 43.9307 16.416C43.939 14.6556 43.9764 13.178 44.144 11.9585C44.3678 10.3324 44.8468 8.96091 45.9603 7.86863C47.0739 6.77989 48.4759 6.31329 50.1411 6.09412C51.3876 5.92798 52.8969 5.89264 54.6953 5.88556C55.3438 2.53451 58.3524 0 61.9658 0C65.5793 0 68.5878 2.53451 69.2364 5.88557C71.0347 5.89264 72.5441 5.92799 73.7905 6.09412C75.4557 6.31329 76.8578 6.77989 77.9713 7.86863C78.9424 8.81952 79.4331 9.98602 79.6907 11.3576C79.941 12.6937 80 14.3233 80 16.2816L79.9999 16.3011L80 16.4033C80 17.3476 79.5783 17.7677 78.6131 17.7677Z" fill="#929BB7"/>
<path d="M41.9162 15.0334C41.8924 13.8866 41.8391 12.8808 41.7192 12.0067C41.496 10.3717 41.0207 8.99504 39.9119 7.90171C38.7994 6.80838 37.4025 6.33813 35.7464 6.11831C34.5044 5.95378 32.9995 5.91711 31.2066 5.90896C30.5621 2.54627 27.5632 0.00330516 23.963 0.00330485C20.3628 0.00330454 17.3638 2.54627 16.7194 5.90896C14.9265 5.91711 13.4216 5.95378 12.1795 6.11831C10.5234 6.33813 9.12654 6.80838 8.01406 7.90171C6.9052 8.99504 6.42997 10.3717 6.20676 12.0066C6.03754 13.2305 6.00154 14.7125 5.99434 16.4782C2.58135 17.1149 0 20.0689 0 23.6168C0 27.1647 2.58135 30.1186 5.99434 30.7554C6.00154 32.5211 6.03754 34.0031 6.20676 35.2269C6.42997 36.8619 6.9052 38.2385 8.01406 39.3318C8.98252 40.2853 10.1706 40.7671 11.5675 41.02C12.6001 41.2065 13.8048 41.2848 15.1974 41.3118C16.56 37.8409 19.9757 35.3895 23.963 35.3895C27.9502 35.3895 31.3659 37.8409 32.7286 41.3118C34.1211 41.2848 35.3258 41.2065 36.3585 41.02C37.7554 40.7671 38.9434 40.2853 39.9119 39.3318C41.0207 38.2385 41.496 36.8619 41.7192 35.2269C41.837 34.3677 41.8906 33.3813 41.9149 32.2588C39.3402 31.2612 37.3177 29.1885 36.4288 26.6031C36.0904 25.6798 35.9061 24.6843 35.9061 23.6463C35.9061 22.6083 36.0905 21.6128 36.4288 20.6894C37.3179 18.1036 39.3409 16.0307 41.9162 15.0334Z" fill="#1F2633"/>
</svg>
