<svg width="24" height="24" viewBox="0 0 24 24" fill="none" xmlns="http://www.w3.org/2000/svg">
<path fill-rule="evenodd" clip-rule="evenodd" d="M2 8C2 5.17157 2 3.75736 2.87868 2.87868C3.75736 2 5.17157 2 8 2H10C12.8284 2 14.2426 2 15.1213 2.87868C16 3.75736 16 5.17157 16 8V11.25H21.2526C21.6668 11.25 22.0026 11.5858 22.0026 12C22.0026 12.4142 21.6668 12.75 21.2526 12.75H16V16C16 18.8284 16 20.2426 15.1213 21.1213C14.2426 22 12.8284 22 10 22H8C5.17157 22 3.75736 22 2.87868 21.1213C2 20.2426 2 18.8284 2 16V8ZM4.72223 11.4697C4.42934 11.7626 4.42934 12.2374 4.72223 12.5303L8.72223 16.5303C9.01513 16.8232 9.49 16.8232 9.78289 16.5303C10.0758 16.2374 10.0758 15.7626 9.78289 15.4697L7.06322 12.75H15.2526C15.6668 12.75 16.0026 12.4142 16.0026 12C16.0026 11.5858 15.6668 11.25 15.2526 11.25H7.06322L9.78289 8.53033C10.0758 8.23744 10.0758 7.76256 9.78289 7.46967C9.49 7.17678 9.01513 7.17678 8.72223 7.46967L4.72223 11.4697Z" fill="white"/>
</svg>
