<svg width="24" height="24" viewBox="0 0 24 24" fill="none" xmlns="http://www.w3.org/2000/svg">
<path d="M15.9531 10.3496C15.9531 12.5329 14.1833 14.3027 12 14.3027C9.81675 14.3027 8.04688 12.5329 8.04688 10.3496C8.04688 8.16636 9.81675 6.39648 12 6.39648C14.1833 6.39648 15.9531 8.16636 15.9531 10.3496Z" fill="#929BB7"/>
<path fill-rule="evenodd" clip-rule="evenodd" d="M22 12C22 17.5228 17.5228 22 12 22C6.47715 22 2 17.5228 2 12C2 6.47715 6.47715 2 12 2C17.5228 2 22 6.47715 22 12ZM3.4 12C3.4 14.021 4.09711 15.8791 5.26399 17.3471C6.91276 16.5208 9.31953 16 12 16C14.6805 16 17.0872 16.5208 18.736 17.3471C19.9029 15.8791 20.6 14.021 20.6 12C20.6 7.25035 16.7496 3.4 12 3.4C7.25035 3.4 3.4 7.25035 3.4 12Z" fill="#929BB7"/>
</svg>
