<svg width="66" height="64" viewBox="0 0 66 64" fill="none" xmlns="http://www.w3.org/2000/svg">
<path d="M13.2677 25.5153C13.0237 24.2526 12.503 23.0256 11.6908 21.9222L42.1092 0C45.1073 4.07344 50.9426 4.92207 55.1425 1.89521L66 16.6467C61.8001 19.6735 60.826 25.4296 63.8242 29.503L59.5641 32.5732L54.4309 19.1855L52.5294 19.921C48.6131 21.4359 44.4178 19.6458 43.0662 16.1206L42.3544 14.2643L13.2677 25.5153Z" fill="#87D9BB"/>
<path fill-rule="evenodd" clip-rule="evenodd" d="M6.40595 59.0788C11.3067 57.1831 16.7135 59.3865 18.4825 64L53.9766 50.2705C52.2077 45.657 54.7464 40.3802 59.6471 38.4845L53.2412 21.7773C48.3405 23.673 42.9336 21.4696 41.1647 16.8561L5.67056 30.5856C7.43949 35.1991 4.90071 40.476 0 42.3716L6.40595 59.0788ZM28.0121 44.3746C25.9333 43.483 23.4809 44.4316 22.5345 46.4934C21.5881 48.5552 22.5061 50.9494 24.5849 51.841C26.6637 52.7327 29.1161 51.784 30.0625 49.7222C31.0089 47.6604 30.0909 45.2662 28.0121 44.3746ZM35.0623 29.0151C32.9835 28.1235 30.5311 29.0721 29.5847 31.1339C28.6383 33.1957 29.5563 35.5899 31.6351 36.4815C33.7139 37.3731 36.1663 36.4245 37.1127 34.3627C38.0591 32.3009 37.1411 29.9067 35.0623 29.0151ZM39.332 46.1887C39.0049 46.2809 38.6509 46.1291 37.9429 45.8255L20.2354 38.2306C19.5275 37.9269 19.1735 37.7751 19.0247 37.4787C18.9979 37.4254 18.9765 37.3696 18.9608 37.312C18.8732 36.992 19.0344 36.6409 19.3567 35.9387C19.679 35.2366 19.8401 34.8855 20.1444 34.7335C20.1991 34.7061 20.2563 34.684 20.3151 34.6674C20.6423 34.5752 20.9963 34.727 21.7042 35.0307L39.4117 42.6256C40.1197 42.9292 40.4737 43.081 40.6225 43.3774C40.6492 43.4307 40.6706 43.4865 40.6864 43.5441C40.7739 43.8642 40.6128 44.2152 40.2905 44.9174C39.9682 45.6196 39.807 45.9707 39.5028 46.1227C39.448 46.15 39.3909 46.1721 39.332 46.1887Z" fill="white"/>
</svg>
