<svg width="75" height="50" viewBox="0 0 75 50" fill="none" xmlns="http://www.w3.org/2000/svg">
<path d="M28.6419 46.338C29.3643 47.4056 29.8656 48.6434 30.0733 50L67.1251 44.0237C66.3585 39.016 69.8842 34.2874 75 33.4622L72.2238 15.3277C67.108 16.1528 62.3394 12.762 61.5728 7.75436L56.3837 8.59136L62.2419 21.7107L60.3757 22.5343C56.5321 24.2305 54.8336 28.4665 56.3762 31.921L57.1885 33.7401L28.6419 46.338Z" fill="#A469FF"/>
<path fill-rule="evenodd" clip-rule="evenodd" d="M0 27.4024C4.80972 25.2798 7.07218 19.894 5.0534 15.373L39.8885 0C41.9073 4.52101 47.4429 6.46545 52.2527 4.34288L59.5634 20.7152C54.7537 22.8377 52.4912 28.2235 54.51 32.7445L19.6749 48.1176C17.6561 43.5965 12.1205 41.6521 7.31077 43.7747L0 27.4024ZM25.7033 22.5428C24.865 24.6451 22.4581 25.7072 20.3274 24.9153C18.1967 24.1233 17.149 21.7771 17.9874 19.6748C18.8257 17.5726 21.2326 16.5104 23.3633 17.3024C25.494 18.0944 26.5416 20.4406 25.7033 22.5428ZM41.5761 28.4427C40.7377 30.545 38.3309 31.6071 36.2002 30.8152C34.0695 30.0232 33.0218 27.677 33.8601 25.5747C34.6985 23.4725 37.1053 22.4103 39.236 23.2023C41.3667 23.9943 42.4144 26.3405 41.5761 28.4427ZM32.4238 13.2507C32.1271 13.4168 31.9843 13.7747 31.6988 14.4907L24.5578 32.3977C24.2723 33.1137 24.1295 33.4716 24.2344 33.787C24.2532 33.8436 24.2776 33.8983 24.3073 33.9503C24.4722 34.2391 24.835 34.3739 25.5607 34.6436C26.2863 34.9134 26.6491 35.0482 26.972 34.9408C27.0301 34.9214 27.0862 34.8967 27.1396 34.8668C27.4364 34.7008 27.5791 34.3428 27.8646 33.6269L35.0056 15.7198C35.2911 15.0039 35.4339 14.6459 35.3291 14.3306C35.3102 14.2739 35.2858 14.2192 35.2561 14.1673C35.0912 13.8785 34.7284 13.7436 34.0028 13.4739C33.2771 13.2042 32.9143 13.0693 32.5914 13.1768C32.5333 13.1961 32.4772 13.2209 32.4238 13.2507Z" fill="white"/>
</svg>
