<svg width="80" height="81" viewBox="0 0 80 81" fill="none" xmlns="http://www.w3.org/2000/svg">
<path d="M20 14H60C70.3511 14 75.3449 14 77.7542 16.4954C80 18.8215 80 23.316 80 32H0C0 23.316 0 18.8215 2.24584 16.4954C4.6551 14 9.64894 14 20 14Z" fill="#87D9BB"/>
<path fill-rule="evenodd" clip-rule="evenodd" d="M60 81L20 81C0 81 2.27299e-06 80 4.10887e-06 34L80 34C80 80 80 81 60 81ZM43.3576 42.41C43.7676 42.8201 43.7676 43.4801 43.7676 44.8V52.2324H51.2C52.5199 52.2324 53.1799 52.2324 53.59 52.6424C54 53.0525 54 53.7124 54 55.0324V56.9676C54 58.2876 54 58.9475 53.59 59.3576C53.1799 59.7676 52.5199 59.7676 51.2 59.7676H43.7676V67.2C43.7676 68.5199 43.7676 69.1799 43.3576 69.59C42.9475 70 42.2876 70 40.9676 70H39.0324C37.7124 70 37.0525 70 36.6424 69.59C36.2324 69.1799 36.2324 68.5199 36.2324 67.2V59.7676H28.8C27.4801 59.7676 26.8201 59.7676 26.4101 59.3576C26 58.9475 26 58.2876 26 56.9676V55.0324C26 53.7124 26 53.0525 26.4101 52.6424C26.8201 52.2324 27.4801 52.2324 28.8 52.2324H36.2324V44.8C36.2324 43.4801 36.2324 42.8201 36.6424 42.41C37.0525 42 37.7124 42 39.0324 42H40.9676C42.2876 42 42.9475 42 43.3576 42.41Z" fill="white"/>
<path d="M27 2.99998C27 3.94279 27 4.4142 27.2929 4.70709C27.5858 4.99998 28.0544 4.99998 28.9916 4.99998C33.0675 4.99998 46.3661 4.99999 51.0029 5C51.9438 5 52.4142 5 52.7071 4.70711C53 4.41421 53 3.94279 53 2.99995C53 2.65721 53 2.31881 53 1.99971C53 1.05712 53 0.585819 52.7071 0.292923C52.4142 2.63751e-05 51.9428 4.76114e-05 50.9999 9.00712e-05L28.9999 0.000900674C28.0571 0.00094313 27.5858 0.000964373 27.2929 0.293855C27 0.586746 27 1.05813 27 2.0009V2.99998Z" fill="white"/>
<path d="M25 1.5C25 0.671573 24.3284 0 23.5 0C22.6716 0 22 0.671573 22 1.5V3C22 5.21312 21.6575 6.38007 21.0859 7.02314C20.5461 7.63042 19.5875 8 17.6667 8H15C14.4477 8 14 8.44772 14 9C14 9.55228 14.4477 10 15 10H18C20.3054 10 22.1605 9.62867 23.3946 8.39461C24.6287 7.16055 25 5.3054 25 3V1.5Z" fill="white"/>
<path d="M56.5 0C55.6716 0 55 0.671573 55 1.5V3C55 5.3054 55.3713 7.16055 56.6054 8.39461C57.8395 9.62867 59.6946 10 62 10H65C65.5523 10 66 9.55228 66 9C66 8.44772 65.5523 8 65 8H62.3333C60.4125 8 59.4539 7.63042 58.9141 7.02314C58.3425 6.38007 58 5.21312 58 3V1.5C58 0.671573 57.3284 0 56.5 0Z" fill="white"/>
</svg>
